<svg xmlns="http://www.w3.org/2000/svg" xmlns:xlink="http://www.w3.org/1999/xlink" width="500" zoomAndPan="magnify" viewBox="0 0 375 374.999991" height="500" preserveAspectRatio="xMidYMid meet" version="1.0"><defs><g/><clipPath id="35fb35efcf"><path d="M 40.414062 30.539062 L 334.585938 30.539062 L 334.585938 324.710938 L 40.414062 324.710938 Z M 40.414062 30.539062 " clip-rule="nonzero"/></clipPath><clipPath id="b448c23d7e"><path d="M 187.5 30.539062 C 106.265625 30.539062 40.414062 96.390625 40.414062 177.625 C 40.414062 258.855469 106.265625 324.710938 187.5 324.710938 C 268.734375 324.710938 334.585938 258.855469 334.585938 177.625 C 334.585938 96.390625 268.734375 30.539062 187.5 30.539062 Z M 187.5 30.539062 " clip-rule="nonzero"/></clipPath></defs><g clip-path="url(#35fb35efcf)"><g clip-path="url(#b448c23d7e)"><path fill="#5e17eb" d="M 40.414062 30.539062 L 334.585938 30.539062 L 334.585938 324.710938 L 40.414062 324.710938 Z M 40.414062 30.539062 " fill-opacity="1" fill-rule="nonzero"/></g></g><g fill="#000000" fill-opacity="1"><g transform="translate(110.646623, 242.879591)"><g><path d="M 146.953125 -155.9375 C 143.203125 -155.9375 139.976562 -154.625 137.28125 -152 C 134.582031 -149.375 133.234375 -146.191406 133.234375 -142.453125 L 133.234375 -14.828125 C 133.234375 -11.085938 134.582031 -7.90625 137.28125 -5.28125 C 139.976562 -2.65625 143.203125 -1.34375 146.953125 -1.34375 L 146.953125 0 L 80.21875 0 L 80.21875 -1.34375 C 83.957031 -1.34375 87.132812 -2.65625 89.75 -5.28125 C 92.375 -7.90625 93.6875 -11.085938 93.6875 -14.828125 L 93.6875 -77.96875 L 59.765625 -77.96875 L 59.765625 -14.828125 C 59.765625 -11.085938 61.113281 -7.90625 63.8125 -5.28125 C 66.507812 -2.65625 69.726562 -1.34375 73.46875 -1.34375 L 73.46875 0 L 6.734375 0 L 6.734375 -1.34375 C 10.484375 -1.34375 13.664062 -2.65625 16.28125 -5.28125 C 18.90625 -7.90625 20.21875 -11.085938 20.21875 -14.828125 L 20.21875 -142.453125 C 20.21875 -146.191406 18.90625 -149.375 16.28125 -152 C 13.664062 -154.625 10.484375 -155.9375 6.734375 -155.9375 L 6.734375 -157.28125 L 73.46875 -157.28125 L 73.46875 -155.9375 C 69.726562 -155.9375 66.507812 -154.625 63.8125 -152 C 61.113281 -149.375 59.765625 -146.191406 59.765625 -142.453125 L 59.765625 -79.3125 L 93.6875 -79.3125 L 93.6875 -142.453125 C 93.6875 -146.191406 92.375 -149.375 89.75 -152 C 87.132812 -154.625 83.957031 -155.9375 80.21875 -155.9375 L 80.21875 -157.28125 L 146.953125 -157.28125 Z M 146.953125 -155.9375 "/></g></g></g><g fill="#5e17eb" fill-opacity="1"><g transform="translate(201.289107, 236.566269)"><g><path d="M 43.09375 -15.234375 C 43.257812 -13.128906 42.84375 -11.164062 41.84375 -9.34375 C 40.84375 -7.53125 39.421875 -5.941406 37.578125 -4.578125 C 35.734375 -3.210938 33.5625 -2.117188 31.0625 -1.296875 C 28.5625 -0.484375 25.941406 -0.0507812 23.203125 0 C 24.148438 -0.101562 25.054688 -0.390625 25.921875 -0.859375 C 26.796875 -1.335938 27.570312 -1.929688 28.25 -2.640625 C 28.9375 -3.347656 29.476562 -4.160156 29.875 -5.078125 C 30.269531 -6.003906 30.46875 -6.96875 30.46875 -7.96875 C 30.46875 -9.96875 29.769531 -11.863281 28.375 -13.65625 C 26.976562 -15.445312 25.210938 -17.195312 23.078125 -18.90625 C 20.953125 -20.613281 18.664062 -22.335938 16.21875 -24.078125 C 13.769531 -25.816406 11.476562 -27.628906 9.34375 -29.515625 C 7.21875 -31.410156 5.457031 -33.410156 4.0625 -35.515625 C 2.664062 -37.617188 1.96875 -39.910156 1.96875 -42.390625 C 1.96875 -44.753906 2.613281 -46.75 3.90625 -48.375 C 5.195312 -50.007812 6.828125 -51.34375 8.796875 -52.375 C 10.773438 -53.40625 12.929688 -54.140625 15.265625 -54.578125 C 17.609375 -55.023438 19.863281 -55.25 22.03125 -55.25 L 23.203125 -55.25 C 21.359375 -55.09375 19.726562 -54.410156 18.3125 -53.203125 C 16.894531 -51.992188 16.109375 -50.285156 15.953125 -48.078125 C 15.785156 -46.023438 16.320312 -44.128906 17.5625 -42.390625 C 18.800781 -40.648438 20.378906 -38.976562 22.296875 -37.375 C 24.222656 -35.769531 26.351562 -34.175781 28.6875 -32.59375 C 31.03125 -31.019531 33.226562 -29.347656 35.28125 -27.578125 C 37.332031 -25.816406 39.09375 -23.9375 40.5625 -21.9375 C 42.039062 -19.9375 42.882812 -17.703125 43.09375 -15.234375 Z M 39.546875 -40.34375 C 39.234375 -41.914062 38.664062 -43.515625 37.84375 -45.140625 C 37.03125 -46.773438 36.003906 -48.300781 34.765625 -49.71875 C 33.535156 -51.144531 32.117188 -52.34375 30.515625 -53.3125 C 28.910156 -54.289062 27.160156 -54.882812 25.265625 -55.09375 C 26.941406 -54.9375 28.53125 -54.738281 30.03125 -54.5 C 31.53125 -54.269531 33.125 -54.15625 34.8125 -54.15625 C 35.707031 -54.15625 36.585938 -54.234375 37.453125 -54.390625 C 38.328125 -54.546875 39.023438 -54.832031 39.546875 -55.25 Z M 14.203125 -3.78125 C 14.367188 -2.894531 15.054688 -2.066406 16.265625 -1.296875 C 17.472656 -0.535156 19.179688 -0.101562 21.390625 0 C 18.703125 -0.101562 16.1875 -0.523438 13.84375 -1.265625 C 11.507812 -2.003906 9.457031 -2.976562 7.6875 -4.1875 C 5.925781 -5.394531 4.53125 -6.800781 3.5 -8.40625 C 2.476562 -10.007812 1.96875 -11.757812 1.96875 -13.65625 C 1.96875 -14.8125 2.191406 -15.898438 2.640625 -16.921875 C 3.085938 -17.953125 3.691406 -18.847656 4.453125 -19.609375 C 5.222656 -20.378906 6.117188 -20.988281 7.140625 -21.4375 C 8.171875 -21.882812 9.265625 -22.109375 10.421875 -22.109375 C 11.578125 -22.109375 12.664062 -21.882812 13.6875 -21.4375 C 14.71875 -20.988281 15.613281 -20.378906 16.375 -19.609375 C 17.144531 -18.847656 17.75 -17.953125 18.1875 -16.921875 C 18.632812 -15.898438 18.859375 -14.8125 18.859375 -13.65625 C 18.859375 -12.5 18.632812 -11.394531 18.1875 -10.34375 C 17.75 -9.289062 17.160156 -8.394531 16.421875 -7.65625 C 15.578125 -6.757812 14.96875 -6.070312 14.59375 -5.59375 C 14.226562 -5.125 14.097656 -4.519531 14.203125 -3.78125 Z M 14.203125 -3.78125 "/></g></g></g></svg>