<svg xmlns="http://www.w3.org/2000/svg" xmlns:xlink="http://www.w3.org/1999/xlink" width="500" zoomAndPan="magnify" viewBox="0 0 375 374.999991" height="500" preserveAspectRatio="xMidYMid meet" version="1.0"><defs><g/></defs><g fill="#694bfc" fill-opacity="1"><g transform="translate(42.469958, 350.934279)"><g><path d="M 272.875 -123.625 C 274.363281 -129.070312 277.394531 -133.03125 281.96875 -135.5 C 286.550781 -137.976562 291.441406 -139.21875 296.640625 -139.21875 C 302.335938 -139.21875 307.535156 -137.671875 312.234375 -134.578125 C 316.929688 -131.484375 319.28125 -127.09375 319.28125 -121.40625 C 319.28125 -118.675781 318.785156 -115.828125 317.796875 -112.859375 C 310.617188 -91.078125 301.644531 -71.644531 290.875 -54.5625 C 280.113281 -37.488281 267.492188 -24.125 253.015625 -14.46875 C 238.535156 -4.820312 222.015625 0 203.453125 0 C 190.578125 0 178.816406 -2.535156 168.171875 -7.609375 C 157.535156 -12.679688 149 -19.921875 142.5625 -29.328125 C 136.125 -38.734375 132.90625 -49.992188 132.90625 -63.109375 C 132.90625 -72.023438 134.394531 -81.0625 137.375 -90.21875 C 140.832031 -99.875 143.796875 -108.164062 146.265625 -115.09375 C 148.742188 -122.019531 151.71875 -130.554688 155.1875 -140.703125 C 144.050781 -140.703125 133.347656 -140.640625 123.078125 -140.515625 C 112.804688 -140.398438 101.851562 -140.34375 90.21875 -140.34375 C 86.507812 -128.957031 82.300781 -116.394531 77.59375 -102.65625 C 72.894531 -88.914062 68.191406 -75.175781 63.484375 -61.4375 C 58.785156 -47.707031 54.453125 -35.148438 50.484375 -23.765625 C 48.015625 -15.347656 43.867188 -9.28125 38.046875 -5.5625 C 32.234375 -1.851562 26.234375 0 20.046875 0 C 12.617188 0 5.9375 -2.347656 0 -7.046875 C -5.9375 -11.753906 -8.90625 -18.066406 -8.90625 -25.984375 C -8.90625 -29.703125 -8.164062 -33.539062 -6.6875 -37.5 L 28.59375 -140.34375 L 19.671875 -140.34375 C 12.742188 -140.34375 7.175781 -142.753906 2.96875 -147.578125 C -1.238281 -152.398438 -3.34375 -157.660156 -3.34375 -163.359375 C -3.34375 -169.296875 -0.867188 -174.738281 4.078125 -179.6875 C 9.035156 -184.644531 17.207031 -187.125 28.59375 -187.125 L 44.921875 -187.125 L 82.421875 -294.046875 C 85.140625 -303.691406 89.71875 -310.804688 96.15625 -315.390625 C 102.59375 -319.972656 109.03125 -322.265625 115.46875 -322.265625 C 122.144531 -322.265625 128.082031 -319.972656 133.28125 -315.390625 C 138.476562 -310.804688 141.078125 -304.1875 141.078125 -295.53125 C 141.078125 -290.582031 140.210938 -285.507812 138.484375 -280.3125 L 106.546875 -187.125 L 170.78125 -187.125 C 174.488281 -197.757812 178.382812 -209.453125 182.46875 -222.203125 C 186.5625 -234.953125 190.707031 -247.695312 194.90625 -260.4375 C 199.113281 -273.1875 203.078125 -284.882812 206.796875 -295.53125 C 210.265625 -304.9375 214.90625 -311.742188 220.71875 -315.953125 C 226.53125 -320.160156 232.53125 -322.265625 238.71875 -322.265625 C 245.894531 -322.265625 252.328125 -319.664062 258.015625 -314.46875 C 263.710938 -309.269531 266.5625 -302.335938 266.5625 -293.671875 C 266.5625 -289.960938 265.820312 -285.628906 264.34375 -280.671875 L 196.40625 -80.9375 C 193.925781 -73.757812 192.6875 -67.570312 192.6875 -62.375 C 192.6875 -56.925781 194.046875 -52.960938 196.765625 -50.484375 C 199.492188 -48.015625 203.207031 -46.78125 207.90625 -46.78125 C 220.03125 -46.78125 231.785156 -53.585938 243.171875 -67.203125 C 254.554688 -80.816406 264.457031 -99.625 272.875 -123.625 Z M 272.875 -123.625 "/></g></g></g></svg>